# xmcd CD database file
#
# Track frame offsets:
#	150
#	22839
#	42094
#	62402
#	79433
#	99450
#	123023
#	144629
#	162741
#	178022
#	195161
#
# Disc length: 2911 seconds
#
# Revision: 2
# Processed by: cddbd v1.5.2PL0 Copyright (c) Steve Scherf et al.
# Submitted via: CDex 1.51
#
DISCID=870b5d0b
DTITLE=Abi Tucker - One December Moon
DYEAR=1900
DGENRE=Country
TTITLE0=Hollywood Ending
TTITLE1=Wild Hearts
TTITLE2=Hey You
TTITLE3=Trouble
TTITLE4=Self Sabotage
TTITLE5=Speak, My Angel
TTITLE6=Happines
TTITLE7=One December Moon
TTITLE8=Cherry Bomb
TTITLE9=Happy New Year
TTITLE10=Respect
EXTD=
EXTT0=
EXTT1=
EXTT2=
EXTT3=
EXTT4=
EXTT5=
EXTT6=
EXTT7=
EXTT8=
EXTT9=
EXTT10=
PLAYORDER=
